#Comment line ignore any data following # character 
#Hierarchical Translation and Rotation (.htr) file 
[Header]	
#Header keywords are followed by a single value 
FileType HTR		#Single word string
DataType HTRS		#Translation followed by rotation and scale data
FileVersion 1		#integer
NumSegments 84		#integer
NumFrames 2		#integer
DataFrameRate 30		#integer, data frame rate in this file
EulerRotationOrder ZYX
CalibrationUnits mm
RotationUnits Degrees
GlobalAxisofGravity Y
BoneLengthAxis Y
ScaleFactor 1.00
[SegmentNames&Hierarchy]
#CHILD	PARENT
MASTER GLOBAL
root MASTER
chest root
L_mid_tent01 root
R_mid_tent01 root
spine01 root
Bip01_Neck chest
L_humerus chest
R_humerus chest
weapon_bone chest
Bip01_Head Bip01_Neck
eye_left_bone Bip01_Head
eye_right_bone Bip01_Head
L_forearm L_humerus
L_front_hand L_forearm
L_weapon_bone L_forearm
L_front_hand01_01 L_front_hand
L_front_hand02_01 L_front_hand
L_front_hand03_01 L_front_hand
L_front_hand01_02 L_front_hand01_01
L_front_hand02_02 L_front_hand02_01
L_front_hand03_02 L_front_hand03_01
R_forearm R_humerus
R_front_hand R_forearm
R_weapon_bone R_forearm
R_front_hand01_01 R_front_hand
R_front_hand02_01 R_front_hand
R_front_hand03_01 R_front_hand
R_front_hand01_02 R_front_hand01_01
R_front_hand02_02 R_front_hand02_01
R_front_hand03_02 R_front_hand03_01
null_rope01_connect L_mid_tent01
Rope1_Seg01 null_rope01_connect
Rope1_Seg02 Rope1_Seg01
Rope1_Seg03 Rope1_Seg02
Rope1_Seg04 Rope1_Seg03
Rope1_Seg05 Rope1_Seg04
Rope1_Seg06 Rope1_Seg05
Rope1_Seg07 Rope1_Seg06
Rope1_Seg09 Rope1_Seg07
L_mid_hand01 Rope1_Seg09
L_mid_hand02 Rope1_Seg09
L_mid_hand03 Rope1_Seg09
null_rope02_connect R_mid_tent01
Rope2_Seg01 null_rope02_connect
Rope2_Seg02 Rope2_Seg01
Rope2_Seg03 Rope2_Seg02
Rope2_Seg04 Rope2_Seg03
Rope2_Seg05 Rope2_Seg04
Rope2_Seg06 Rope2_Seg05
Rope2_Seg07 Rope2_Seg06
Rope2_Seg09 Rope2_Seg07
R_mid_hand01 Rope2_Seg09
R_mid_hand02 Rope2_Seg09
R_mid_hand03 Rope2_Seg09
spine02 spine01
spine03 spine02
pelvis spine03
null_rope03_connect pelvis
null_rope04_connect pelvis
Rope3_Seg01 null_rope03_connect
Rope3_Seg02 Rope3_Seg01
Rope3_Seg03 Rope3_Seg02
Rope3_Seg04 Rope3_Seg03
Rope3_Seg05 Rope3_Seg04
Rope3_Seg06 Rope3_Seg05
Rope3_Seg07 Rope3_Seg06
Rope3_Seg08 Rope3_Seg07
Rope3_Seg09 Rope3_Seg08
R_rear_hand01 Rope3_Seg09
R_rear_hand02 Rope3_Seg09
R_rear_hand03 Rope3_Seg09
Rope4_Seg01 null_rope04_connect
Rope4_Seg02 Rope4_Seg01
Rope4_Seg03 Rope4_Seg02
Rope4_Seg04 Rope4_Seg03
Rope4_Seg05 Rope4_Seg04
Rope4_Seg06 Rope4_Seg05
Rope4_Seg07 Rope4_Seg06
Rope4_Seg08 Rope4_Seg07
Rope4_Seg09 Rope4_Seg08
L_rear_hand01 Rope4_Seg09
L_rear_hand02 Rope4_Seg09
L_rear_hand03 Rope4_Seg09
[BasePosition]
#SegmentName Tx, Ty, Tz, Rx, Ry, Rz, BoneLength
MASTER 0.000000 0.000000 0.000000 -90.000000 0.000000 0.000000 10.000000 
root 0.000000 0.000000 0.000000 0.000000 0.000000 0.000000 10.000000 
chest 0.000000 0.000000 0.000000 0.000000 0.000000 0.000000 10.000000 
L_mid_tent01 0.000000 0.000000 0.000000 0.000000 0.000000 0.000000 10.000000 
R_mid_tent01 0.000000 0.000000 0.000000 0.000000 0.000000 0.000000 10.000000 
spine01 0.000000 0.000000 0.000000 0.000000 0.000000 0.000000 10.000000 
Bip01_Neck 0.000000 0.000000 0.000000 0.000000 0.000000 0.000000 10.000000 
L_humerus 0.000000 0.000000 0.000000 0.000000 0.000000 0.000000 10.000000 
R_humerus 0.000000 0.000000 0.000000 0.000000 0.000000 0.000000 10.000000 
weapon_bone 0.000000 0.000000 0.000000 0.000000 0.000000 0.000000 10.000000 
Bip01_Head 0.000000 0.000000 0.000000 0.000000 0.000000 0.000000 10.000000 
eye_left_bone 0.000000 0.000000 0.000000 0.000000 0.000000 0.000000 10.000000 
eye_right_bone 0.000000 0.000000 0.000000 0.000000 0.000000 0.000000 10.000000 
L_forearm 0.000000 0.000000 0.000000 0.000000 0.000000 0.000000 10.000000 
L_front_hand 0.000000 0.000000 0.000000 0.000000 0.000000 0.000000 10.000000 
L_weapon_bone 0.000000 0.000000 0.000000 0.000000 0.000000 0.000000 10.000000 
L_front_hand01_01 0.000000 0.000000 0.000000 0.000000 0.000000 0.000000 10.000000 
L_front_hand02_01 0.000000 0.000000 0.000000 0.000000 0.000000 0.000000 10.000000 
L_front_hand03_01 0.000000 0.000000 0.000000 0.000000 0.000000 0.000000 10.000000 
L_front_hand01_02 0.000000 0.000000 0.000000 0.000000 0.000000 0.000000 10.000000 
L_front_hand02_02 0.000000 0.000000 0.000000 0.000000 0.000000 0.000000 10.000000 
L_front_hand03_02 0.000000 0.000000 0.000000 0.000000 0.000000 0.000000 10.000000 
R_forearm 0.000000 0.000000 0.000000 0.000000 0.000000 0.000000 10.000000 
R_front_hand 0.000000 0.000000 0.000000 0.000000 0.000000 0.000000 10.000000 
R_weapon_bone 0.000000 0.000000 0.000000 0.000000 0.000000 0.000000 10.000000 
R_front_hand01_01 0.000000 0.000000 0.000000 0.000000 0.000000 0.000000 10.000000 
R_front_hand02_01 0.000000 0.000000 0.000000 0.000000 0.000000 0.000000 10.000000 
R_front_hand03_01 0.000000 0.000000 0.000000 0.000000 0.000000 0.000000 10.000000 
R_front_hand01_02 0.000000 0.000000 0.000000 0.000000 0.000000 0.000000 10.000000 
R_front_hand02_02 0.000000 0.000000 0.000000 0.000000 0.000000 0.000000 10.000000 
R_front_hand03_02 0.000000 0.000000 0.000000 0.000000 0.000000 0.000000 10.000000 
null_rope01_connect 0.000000 0.000000 0.000000 0.000000 0.000000 0.000000 10.000000 
Rope1_Seg01 0.000000 0.000000 0.000000 0.000000 0.000000 0.000000 10.000000 
Rope1_Seg02 0.000000 0.000000 0.000000 0.000000 0.000000 0.000000 10.000000 
Rope1_Seg03 0.000000 0.000000 0.000000 0.000000 0.000000 0.000000 10.000000 
Rope1_Seg04 0.000000 0.000000 0.000000 0.000000 0.000000 0.000000 10.000000 
Rope1_Seg05 0.000000 0.000000 0.000000 0.000000 0.000000 0.000000 10.000000 
Rope1_Seg06 0.000000 0.000000 0.000000 0.000000 0.000000 0.000000 10.000000 
Rope1_Seg07 0.000000 0.000000 0.000000 0.000000 0.000000 0.000000 10.000000 
Rope1_Seg09 0.000000 0.000000 0.000000 0.000000 0.000000 0.000000 10.000000 
L_mid_hand01 0.000000 0.000000 0.000000 0.000000 0.000000 0.000000 10.000000 
L_mid_hand02 0.000000 0.000000 0.000000 0.000000 0.000000 0.000000 10.000000 
L_mid_hand03 0.000000 0.000000 0.000000 0.000000 0.000000 0.000000 10.000000 
null_rope02_connect 0.000000 0.000000 0.000000 0.000000 0.000000 0.000000 10.000000 
Rope2_Seg01 0.000000 0.000000 0.000000 0.000000 0.000000 0.000000 10.000000 
Rope2_Seg02 0.000000 0.000000 0.000000 0.000000 0.000000 0.000000 10.000000 
Rope2_Seg03 0.000000 0.000000 0.000000 0.000000 0.000000 0.000000 10.000000 
Rope2_Seg04 0.000000 0.000000 0.000000 0.000000 0.000000 0.000000 10.000000 
Rope2_Seg05 0.000000 0.000000 0.000000 0.000000 0.000000 0.000000 10.000000 
Rope2_Seg06 0.000000 0.000000 0.000000 0.000000 0.000000 0.000000 10.000000 
Rope2_Seg07 0.000000 0.000000 0.000000 0.000000 0.000000 0.000000 10.000000 
Rope2_Seg09 0.000000 0.000000 0.000000 0.000000 0.000000 0.000000 10.000000 
R_mid_hand01 0.000000 0.000000 0.000000 0.000000 0.000000 0.000000 10.000000 
R_mid_hand02 0.000000 0.000000 0.000000 0.000000 0.000000 0.000000 10.000000 
R_mid_hand03 0.000000 0.000000 0.000000 0.000000 0.000000 0.000000 10.000000 
spine02 0.000000 0.000000 0.000000 0.000000 0.000000 0.000000 10.000000 
spine03 0.000000 0.000000 0.000000 0.000000 0.000000 0.000000 10.000000 
pelvis 0.000000 0.000000 0.000000 0.000000 0.000000 0.000000 10.000000 
null_rope03_connect 0.000000 0.000000 0.000000 0.000000 0.000000 0.000000 10.000000 
null_rope04_connect 0.000000 0.000000 0.000000 0.000000 0.000000 0.000000 10.000000 
Rope3_Seg01 0.000000 0.000000 0.000000 0.000000 0.000000 0.000000 10.000000 
Rope3_Seg02 0.000000 0.000000 0.000000 0.000000 0.000000 0.000000 10.000000 
Rope3_Seg03 0.000000 0.000000 0.000000 0.000000 0.000000 0.000000 10.000000 
Rope3_Seg04 0.000000 0.000000 0.000000 0.000000 0.000000 0.000000 10.000000 
Rope3_Seg05 0.000000 0.000000 0.000000 0.000000 0.000000 0.000000 10.000000 
Rope3_Seg06 0.000000 0.000000 0.000000 0.000000 0.000000 0.000000 10.000000 
Rope3_Seg07 0.000000 0.000000 0.000000 0.000000 0.000000 0.000000 10.000000 
Rope3_Seg08 0.000000 0.000000 0.000000 0.000000 0.000000 0.000000 10.000000 
Rope3_Seg09 0.000000 0.000000 0.000000 0.000000 0.000000 0.000000 10.000000 
R_rear_hand01 0.000000 0.000000 0.000000 0.000000 0.000000 0.000000 10.000000 
R_rear_hand02 0.000000 0.000000 0.000000 0.000000 0.000000 0.000000 10.000000 
R_rear_hand03 0.000000 0.000000 0.000000 0.000000 0.000000 0.000000 10.000000 
Rope4_Seg01 0.000000 0.000000 0.000000 0.000000 0.000000 0.000000 10.000000 
Rope4_Seg02 0.000000 0.000000 0.000000 0.000000 0.000000 0.000000 10.000000 
Rope4_Seg03 0.000000 0.000000 0.000000 0.000000 0.000000 0.000000 10.000000 
Rope4_Seg04 0.000000 0.000000 0.000000 0.000000 0.000000 0.000000 10.000000 
Rope4_Seg05 0.000000 0.000000 0.000000 0.000000 0.000000 0.000000 10.000000 
Rope4_Seg06 0.000000 0.000000 0.000000 0.000000 0.000000 0.000000 10.000000 
Rope4_Seg07 0.000000 0.000000 0.000000 0.000000 0.000000 0.000000 10.000000 
Rope4_Seg08 0.000000 0.000000 0.000000 0.000000 0.000000 0.000000 10.000000 
Rope4_Seg09 0.000000 0.000000 0.000000 0.000000 0.000000 0.000000 10.000000 
L_rear_hand01 0.000000 0.000000 0.000000 0.000000 0.000000 0.000000 10.000000 
L_rear_hand02 0.000000 0.000000 0.000000 0.000000 0.000000 0.000000 10.000000 
L_rear_hand03 0.000000 0.000000 0.000000 0.000000 0.000000 0.000000 10.000000 
#Beginning of Data. Separated by tabs
#Fr	Tx	Ty	Tz	Rx	Ry	Rz	SF
[MASTER]
14 854.489563 3182.023193 3086.620361 0.001660 0.001660 0.001660 4514.714844
15 833.452759 3402.936523 3073.090820 0.001660 0.001660 0.001660 4660.312012
[root]
14 21.616058 -109.507133 423.156097 -12.593575 6.710303 -100.564247 437.630188
15 20.013206 -118.897415 462.015411 -13.209880 6.970520 -95.167084 477.488617
[chest]
14 -84.512650 -34.090519 0.000000 7.229552 11.281457 148.485626 91.129311
15 -84.512650 -34.090519 0.000000 0.446460 12.533705 129.637680 91.129311
[L_mid_tent01]
14 27.298986 22.179258 -249.918686 -2.814951 19.403719 74.102524 252.381668
15 27.298981 22.179258 -249.918686 -3.732304 19.066975 72.570564 252.381668
[R_mid_tent01]
14 23.228794 24.509907 226.238495 164.695450 -26.885063 65.435173 228.744751
15 23.228794 24.509907 226.238495 163.086990 -29.003839 64.727623 228.744751
[spine01]
14 -0.361383 -0.195265 0.000000 0.001838 0.001460 13.098722 0.410763
15 -0.361383 -0.195265 0.000000 0.001829 0.001472 12.358697 0.410763
[Bip01_Neck]
14 165.484543 71.581718 0.000119 176.643677 -1.657967 43.431911 180.302734
15 165.484543 71.581718 0.000119 176.643677 -1.657967 43.431911 180.302734
[L_humerus]
14 -13.983130 -135.272980 -120.471481 138.211868 78.224884 -130.763168 181.680161
15 -13.983130 -135.272980 -120.471481 147.057846 74.986122 -121.680153 181.680161
[R_humerus]
14 -13.983309 -135.273102 125.287651 -173.249054 -55.516140 -91.505455 184.909012
15 -13.983309 -135.273102 125.287651 -173.594467 -51.754669 -91.075928 184.909012
[weapon_bone]
14 235.964890 -300.705902 0.000000 0.000000 -89.951546 -128.212341 382.234833
15 235.964890 -300.705902 0.000000 0.000000 -89.951546 -128.212341 382.234833
[Bip01_Head]
14 213.328583 186.038635 7.606887 20.717659 3.456327 -41.002991 283.156006
15 213.329849 186.034912 7.654876 22.859180 0.764728 -38.187119 283.155792
[eye_left_bone]
14 -24.626970 125.451866 -64.772606 0.000000 -90.000000 -99.840431 143.318359
15 -24.626970 125.451866 -64.772606 0.000000 -90.000000 -99.840431 143.318359
[eye_right_bone]
14 -24.626970 125.451866 64.327362 0.000000 -89.965736 80.156380 143.117676
15 -24.626970 125.451866 64.327362 0.000000 -89.965736 80.156380 143.117676
[L_forearm]
14 322.776093 0.000000 -0.000119 0.000427 -0.002308 -110.977768 322.776093
15 322.776093 0.000000 -0.000119 0.000429 -0.002308 -111.047813 322.776093
[L_front_hand]
14 241.149185 -0.042021 -3.300071 -178.667953 -1.835447 -27.422350 241.171753
15 241.149185 -0.042021 -3.300071 -178.667953 -1.835447 -27.422342 241.171753
[L_weapon_bone]
14 156.183838 0.000000 0.000000 0.000014 0.000007 0.000001 156.183838
15 156.183838 0.000000 0.000000 0.000014 0.000007 0.000001 156.183838
[L_front_hand01_01]
14 86.095154 20.947098 -0.655860 -0.289102 -0.524108 66.611076 88.609184
15 86.095154 20.947098 -0.655860 -0.298084 -0.518635 67.679581 88.609184
[L_front_hand02_01]
14 86.935165 -11.437475 24.513514 142.580521 -55.269005 -47.395390 91.046425
15 86.935165 -11.437475 24.513514 143.833725 -55.908619 -48.913998 91.046425
[L_front_hand03_01]
14 86.637497 -14.123976 -20.424902 -142.879883 53.494282 -49.391994 90.126129
15 86.637497 -14.123976 -20.424902 -144.057922 54.129482 -50.849693 90.126129
[L_front_hand01_02]
14 71.020905 -0.000179 0.000030 0.000315 -0.002326 -105.444061 71.020905
15 71.020905 -0.000179 0.000030 0.000317 -0.002326 -105.506187 71.020905
[L_front_hand02_02]
14 71.020927 -0.000119 0.000060 0.000315 -0.002326 -105.444061 71.020927
15 71.020927 -0.000119 0.000060 0.000317 -0.002326 -105.506187 71.020927
[L_front_hand03_02]
14 71.020905 -0.000060 0.000060 0.000315 -0.002326 -105.444061 71.020905
15 71.020905 -0.000060 0.000060 0.000317 -0.002326 -105.506187 71.020905
[R_forearm]
14 322.776428 -0.000060 0.000030 0.201191 0.067922 -109.633636 322.776428
15 322.776428 -0.000060 0.000030 0.201154 0.068032 -109.696144 322.776428
[R_front_hand]
14 238.847015 -0.006795 2.210259 -2.635298 -10.645461 -26.312506 238.857239
15 238.847015 -0.006795 2.210259 -2.635298 -10.645461 -26.312506 238.857239
[R_weapon_bone]
14 155.664093 0.002503 -0.000030 0.003487 0.001180 -90.988930 155.664078
15 155.664093 0.002503 -0.000030 0.003487 0.001180 -90.988930 155.664078
[R_front_hand01_01]
14 87.624611 14.231146 22.918642 -141.083969 -54.436913 45.672482 91.683487
15 87.624611 14.231146 22.918642 -143.936417 -55.959175 49.146500 91.683487
[R_front_hand02_01]
14 89.356956 14.367283 -19.491137 141.813004 52.852688 48.289932 92.579636
15 89.356956 14.367283 -19.491137 144.531738 54.354271 51.666687 92.579636
[R_front_hand03_01]
14 87.286232 -22.307278 -0.143439 0.082367 -0.444902 -65.508453 90.091743
15 87.286232 -22.307278 -0.143439 0.103016 -0.441569 -68.007950 90.091743
[R_front_hand01_02]
14 71.020905 0.000060 0.000119 0.002323 -0.000334 106.381714 71.020905
15 71.020905 0.000060 0.000119 0.002323 -0.000334 106.381714 71.020905
[R_front_hand02_02]
14 71.020844 -0.000030 -0.000119 0.002323 -0.000334 106.381714 71.020836
15 71.020844 -0.000030 -0.000119 0.002323 -0.000334 106.381714 71.020836
[R_front_hand03_02]
14 71.020905 0.000000 0.000030 0.002323 -0.000334 106.381714 71.020905
15 71.020905 0.000000 0.000030 0.002323 -0.000334 106.381714 71.020905
[null_rope01_connect]
14 328.732483 0.000000 -0.000238 -15.834880 -29.666754 28.560816 328.732483
15 328.732483 0.000000 -0.000238 -12.554649 -31.517351 23.736935 328.732483
[Rope1_Seg01]
14 0.000038 -0.000258 0.000000 -3.242647 49.547356 -179.357193 0.000261
15 0.000038 -0.000275 0.000000 3.821549 44.717239 -169.796783 0.000277
[Rope1_Seg02]
14 139.999863 -0.000179 0.000000 -3.042585 17.526978 -25.900066 139.999863
15 139.999863 -0.000179 0.000000 -2.792495 15.463173 -22.720465 139.999863
[Rope1_Seg03]
14 139.999924 0.000060 -0.000060 6.774818 16.989994 -30.705673 139.999924
15 139.999924 0.000060 -0.000060 2.362430 18.073273 -33.330334 139.999924
[Rope1_Seg04]
14 139.999924 -0.000060 -0.000119 25.864655 6.045288 -14.769492 139.999924
15 139.999924 -0.000060 -0.000119 14.181392 8.576788 -16.944815 139.999924
[Rope1_Seg05]
14 139.999832 0.000119 -0.000060 120.876984 5.280574 -15.365767 139.999832
15 139.999832 0.000119 -0.000060 168.809677 14.594917 -18.800175 139.999832
[Rope1_Seg06]
14 139.999954 0.000119 -0.000060 29.754320 -22.598125 3.378258 139.999954
15 139.999954 0.000119 -0.000060 1.767642 -21.556892 20.115294 139.999954
[Rope1_Seg07]
14 139.999985 0.000060 0.000000 0.697268 -10.427444 9.833322 139.999985
15 139.999985 0.000060 0.000000 -1.429626 -9.728056 11.793862 139.999985
[Rope1_Seg09]
14 121.602913 0.000119 -0.000089 -89.793175 -1.359789 0.847147 121.602913
15 121.602913 0.000119 -0.000089 -89.793175 -1.359789 0.847147 121.602913
[L_mid_hand01]
14 103.859421 1.038730 8.195221 110.331215 -44.470776 -15.085362 104.187431
15 103.859421 1.038730 8.195221 111.331635 -47.044144 -16.484426 104.187431
[L_mid_hand02]
14 105.572853 -4.139662 -10.864139 -148.937714 33.668659 -42.029243 106.211075
15 105.572853 -4.139662 -10.864139 -150.562561 35.052639 -44.910461 106.211075
[L_mid_hand03]
14 104.641464 17.579376 -3.913581 -13.360330 13.301838 47.989159 106.179977
15 104.641464 17.579376 -3.913581 -12.713109 13.922001 50.749584 106.179977
[null_rope02_connect]
14 328.732849 0.000179 -0.000119 -161.037231 -1.917375 -36.634190 328.732849
15 328.732849 0.000179 -0.000119 -158.974625 -3.685802 -32.608181 328.732849
[Rope2_Seg01]
14 0.000088 -0.000134 0.000000 -9.527994 -48.301819 171.752640 0.000160
15 0.000088 -0.000153 0.000000 -15.508725 -45.811913 178.007370 0.000176
[Rope2_Seg02]
14 139.999741 -0.000060 -0.000119 4.378547 -7.414348 -11.608624 139.999756
15 139.999741 -0.000060 -0.000119 3.344337 -6.984540 -9.059518 139.999756
[Rope2_Seg03]
14 140.000107 0.000030 0.000000 5.561503 -14.533605 -15.942031 140.000107
15 140.000107 0.000030 0.000000 4.786849 -14.079043 -14.705218 140.000107
[Rope2_Seg04]
14 139.999802 0.000000 -0.000060 1.857740 -19.819035 -12.083143 139.999802
15 139.999802 0.000000 -0.000060 1.572092 -23.803339 -13.378977 139.999802
[Rope2_Seg05]
14 139.999985 -0.000060 0.000119 -0.772368 1.784006 -29.059002 139.999985
15 139.999985 -0.000060 0.000119 -2.464378 -1.934096 -30.594385 139.999985
[Rope2_Seg06]
14 139.999893 -0.000030 -0.000119 5.266799 9.014368 -31.437721 139.999893
15 139.999893 -0.000030 -0.000119 4.779793 10.523481 -43.431324 139.999893
[Rope2_Seg07]
14 139.999893 0.000060 -0.000060 5.590504 0.141056 -11.175004 139.999893
15 139.999893 0.000060 -0.000060 7.475028 -0.446728 -14.318733 139.999893
[Rope2_Seg09]
14 121.338966 0.000089 -0.000060 33.793236 -1.359788 -0.847141 121.338966
15 121.338966 0.000089 -0.000060 33.793236 -1.359788 -0.847141 121.338966
[R_mid_hand01]
14 104.680779 11.144459 -10.335981 -36.495327 32.739510 38.894321 105.778534
15 104.680779 11.144459 -10.335981 -37.023243 32.123154 37.917080 105.778534
[R_mid_hand02]
14 104.070427 2.443552 8.231699 69.926315 -43.736984 14.713636 104.424065
15 104.070427 2.443552 8.231699 70.253304 -42.771339 14.235763 104.424065
[R_mid_hand03]
14 106.028137 -11.221827 -5.996406 -170.196442 12.469419 -48.616360 106.788818
15 106.028137 -11.221827 -5.996406 -169.973053 12.289117 -47.575344 106.788818
[spine02]
14 129.756927 0.001550 0.000119 0.518254 -4.026479 -15.174309 129.756927
15 129.756927 0.001550 0.000119 0.522702 -4.025899 -15.254354 129.756927
[spine03]
14 78.613930 0.081663 -4.898998 1.988227 3.785716 17.876690 78.766472
15 78.613922 0.081665 -4.898998 1.993311 3.784245 17.931944 78.766457
[pelvis]
14 169.435242 0.051022 0.000000 4.072888 -0.883361 8.544903 169.435257
15 169.435242 0.051022 0.000000 4.525106 -0.930944 7.771655 169.435257
[null_rope03_connect]
14 -1.257226 -2.466202 137.391083 -8.923277 -5.733652 76.317833 137.418976
15 -1.257226 -2.466202 137.391083 -8.625840 -6.664711 72.501656 137.418976
[null_rope04_connect]
14 -1.259640 -2.480268 -137.844437 -8.923277 -5.733652 76.317833 137.872513
15 -1.259640 -2.480268 -137.844437 -8.625840 -6.664711 72.501656 137.872513
[Rope3_Seg01]
14 0.000000 0.000000 0.000000 15.767313 -37.261662 -70.118538 0.000000
15 0.000000 0.000000 0.000000 28.666349 -36.333408 -93.133636 0.000000
[Rope3_Seg02]
14 139.999924 -0.000119 0.000060 -0.701675 -12.135224 12.685003 139.999924
15 139.999924 -0.000119 0.000060 4.496743 -12.016284 15.088593 139.999924
[Rope3_Seg03]
14 139.999924 -0.000119 0.000119 -3.600079 -18.633329 17.405218 139.999924
15 139.999924 -0.000119 0.000119 0.032035 -17.962948 27.544819 139.999924
[Rope3_Seg04]
14 139.999924 0.000119 0.000000 -3.059446 -19.413202 11.549355 139.999924
15 139.999924 0.000119 0.000000 -4.139136 -14.810986 21.420700 139.999924
[Rope3_Seg05]
14 139.999924 -0.000238 0.000060 -1.566684 -2.273261 15.310166 139.999924
15 139.999924 -0.000238 0.000060 -2.625848 -3.625407 13.668207 139.999924
[Rope3_Seg06]
14 139.999893 -0.000119 -0.000060 -3.356338 8.094442 30.147789 139.999893
15 139.999893 -0.000119 -0.000060 -5.002803 0.656632 20.528564 139.999893
[Rope3_Seg07]
14 139.999771 0.000060 -0.000119 -14.428742 1.275677 20.056250 139.999771
15 139.999771 0.000060 -0.000119 -11.327937 -2.264901 18.310923 139.999771
[Rope3_Seg08]
14 139.999985 -0.000060 0.000000 -13.984517 -2.167148 9.282207 139.999985
15 139.999985 -0.000060 0.000000 -10.045072 -3.633654 9.530333 139.999985
[Rope3_Seg09]
14 90.185997 -0.000179 -0.000060 89.793228 -1.359877 -0.847183 90.185997
15 90.185997 -0.000179 -0.000060 89.793228 -1.359877 -0.847183 90.185997
[R_rear_hand01]
14 103.366196 -6.073594 -10.757982 -164.915863 19.747875 -40.821388 104.101845
15 103.366196 -6.073594 -10.757982 -164.755127 19.627697 -40.352161 104.101845
[R_rear_hand02]
14 100.509819 12.039542 -7.992327 -30.611040 25.017698 38.577400 101.543350
15 100.509819 12.039542 -7.992327 -30.792652 24.782450 38.141541 101.543350
[R_rear_hand03]
14 101.539970 5.215704 5.435467 82.396393 -41.501781 8.918384 101.819031
15 101.539970 5.215704 5.435467 82.448357 -41.048256 8.840384 101.819031
[Rope4_Seg01]
14 0.000006 -0.000258 -0.000153 178.482346 44.972507 179.803558 0.000300
15 0.000006 -0.000275 -0.000153 137.880737 57.457001 155.712463 0.000314
[Rope4_Seg02]
14 139.999985 0.000060 0.000119 -14.660513 -31.062748 4.112249 139.999985
15 139.999985 0.000060 0.000119 0.523742 -14.956653 -6.520180 139.999985
[Rope4_Seg03]
14 139.999924 0.000000 -0.000238 -1.221585 -24.127855 -4.077715 139.999924
15 139.999924 0.000000 -0.000238 0.980323 -14.316218 -6.909604 139.999924
[Rope4_Seg04]
14 139.999985 0.000000 0.000119 0.220024 -11.872380 -2.099771 139.999985
15 139.999985 0.000000 0.000119 2.901036 -27.289240 -11.736317 139.999985
[Rope4_Seg05]
14 139.999802 -0.000060 -0.000119 0.810796 -10.267953 0.445259 139.999802
15 139.999802 -0.000060 -0.000119 1.225241 -13.919922 -5.117190 139.999802
[Rope4_Seg06]
14 139.999924 0.000000 0.000060 2.203696 -11.817928 1.787735 139.999924
15 139.999924 0.000000 0.000060 0.427677 -4.677391 -1.703759 139.999924
[Rope4_Seg07]
14 139.999802 0.000000 0.000000 2.509189 -8.609913 1.152214 139.999802
15 139.999802 0.000000 0.000000 0.342549 -2.790065 -0.996125 139.999802
[Rope4_Seg08]
14 139.999924 0.000000 0.000119 0.590719 -5.485318 0.933951 139.999924
15 139.999924 0.000000 0.000119 -1.325835 -1.617387 -0.568262 139.999924
[Rope4_Seg09]
14 90.185791 0.000060 0.000060 -135.617828 2.228885 0.850567 90.185791
15 90.185791 0.000060 0.000060 -135.617828 2.228885 0.850567 90.185791
[L_rear_hand01]
14 101.696655 -8.392275 -7.654577 -27.588619 -28.361088 134.712097 102.329041
15 101.696655 -8.392275 -7.654577 -26.201536 -29.631567 131.847122 102.329041
[L_rear_hand02]
14 102.726799 -1.568258 5.773216 81.431328 48.300430 169.720108 102.900848
15 102.726799 -1.568258 5.773216 80.925568 51.072418 169.054459 102.900848
[L_rear_hand03]
14 104.552910 9.721220 -10.420293 -167.421646 -21.393099 -132.057724 105.519653
15 104.552910 9.721220 -10.420293 -168.512375 -21.976343 -129.102875 105.519653
